<mxfile host="Electron" modified="2024-05-23T16:16:20.656Z" agent="Mozilla/5.0 (X11; Linux x86_64) AppleWebKit/537.36 (KHTML, like Gecko) draw.io/24.4.0 Chrome/120.0.6099.109 Electron/28.1.0 Safari/537.36" etag="R4ItmujKUbPVzO8IETmF" version="24.4.0" type="device">
  <diagram name="Page-1" id="hWDHi4y5g83n30N04bsn">
    <mxGraphModel dx="941" dy="581" grid="1" gridSize="10" guides="1" tooltips="1" connect="1" arrows="1" fold="1" page="1" pageScale="1" pageWidth="827" pageHeight="583" math="0" shadow="0">
      <root>
        <mxCell id="0" />
        <mxCell id="1" parent="0" />
        <mxCell id="qVb45OXCok-LeIYThu6n-1" value="Main function structure" style="text;html=1;align=center;verticalAlign=middle;whiteSpace=wrap;rounded=0;fontSize=18;" vertex="1" parent="1">
          <mxGeometry x="20" y="10" width="200" height="30" as="geometry" />
        </mxCell>
        <mxCell id="qVb45OXCok-LeIYThu6n-11" value="Main loop" style="swimlane;whiteSpace=wrap;html=1;" vertex="1" parent="1">
          <mxGeometry x="240" y="70" width="400" height="360" as="geometry" />
        </mxCell>
        <mxCell id="qVb45OXCok-LeIYThu6n-31" value="" style="edgeStyle=orthogonalEdgeStyle;rounded=0;orthogonalLoop=1;jettySize=auto;html=1;" edge="1" parent="qVb45OXCok-LeIYThu6n-11" source="qVb45OXCok-LeIYThu6n-10" target="qVb45OXCok-LeIYThu6n-12">
          <mxGeometry relative="1" as="geometry" />
        </mxCell>
        <mxCell id="qVb45OXCok-LeIYThu6n-10" value="CAN executives" style="rounded=1;whiteSpace=wrap;html=1;fontSize=16;fillColor=#dae8fc;strokeColor=#6c8ebf;" vertex="1" parent="qVb45OXCok-LeIYThu6n-11">
          <mxGeometry x="20" y="30" width="120" height="60" as="geometry" />
        </mxCell>
        <mxCell id="qVb45OXCok-LeIYThu6n-38" style="rounded=0;orthogonalLoop=1;jettySize=auto;html=1;exitX=1;exitY=0.5;exitDx=0;exitDy=0;entryX=0;entryY=0;entryDx=0;entryDy=0;" edge="1" parent="qVb45OXCok-LeIYThu6n-11" source="qVb45OXCok-LeIYThu6n-12" target="qVb45OXCok-LeIYThu6n-15">
          <mxGeometry relative="1" as="geometry" />
        </mxCell>
        <mxCell id="qVb45OXCok-LeIYThu6n-12" value="encoder count update" style="rounded=1;whiteSpace=wrap;html=1;fontSize=16;fillColor=#dae8fc;strokeColor=#6c8ebf;" vertex="1" parent="qVb45OXCok-LeIYThu6n-11">
          <mxGeometry x="20" y="110" width="120" height="60" as="geometry" />
        </mxCell>
        <mxCell id="qVb45OXCok-LeIYThu6n-14" value="ADC current draw update" style="rounded=1;whiteSpace=wrap;html=1;fontSize=16;fillColor=#dae8fc;strokeColor=#6c8ebf;" vertex="1" parent="qVb45OXCok-LeIYThu6n-11">
          <mxGeometry x="20" y="290" width="120" height="60" as="geometry" />
        </mxCell>
        <mxCell id="qVb45OXCok-LeIYThu6n-20" style="rounded=0;orthogonalLoop=1;jettySize=auto;html=1;exitX=1;exitY=0;exitDx=0;exitDy=0;entryX=0;entryY=0.5;entryDx=0;entryDy=0;" edge="1" parent="qVb45OXCok-LeIYThu6n-11" source="qVb45OXCok-LeIYThu6n-15" target="qVb45OXCok-LeIYThu6n-16">
          <mxGeometry relative="1" as="geometry" />
        </mxCell>
        <mxCell id="qVb45OXCok-LeIYThu6n-37" style="rounded=0;orthogonalLoop=1;jettySize=auto;html=1;exitX=1;exitY=1;exitDx=0;exitDy=0;entryX=0;entryY=0.25;entryDx=0;entryDy=0;" edge="1" parent="qVb45OXCok-LeIYThu6n-11" source="qVb45OXCok-LeIYThu6n-15" target="qVb45OXCok-LeIYThu6n-17">
          <mxGeometry relative="1" as="geometry" />
        </mxCell>
        <mxCell id="qVb45OXCok-LeIYThu6n-15" value="CALIB/&lt;div&gt;OPER?&lt;/div&gt;" style="rhombus;whiteSpace=wrap;html=1;fillColor=#d5e8d4;strokeColor=#82b366;" vertex="1" parent="qVb45OXCok-LeIYThu6n-11">
          <mxGeometry x="158.5" y="147" width="83" height="75" as="geometry" />
        </mxCell>
        <mxCell id="qVb45OXCok-LeIYThu6n-21" value="" style="edgeStyle=orthogonalEdgeStyle;rounded=0;orthogonalLoop=1;jettySize=auto;html=1;" edge="1" parent="qVb45OXCok-LeIYThu6n-11" source="qVb45OXCok-LeIYThu6n-16" target="qVb45OXCok-LeIYThu6n-18">
          <mxGeometry relative="1" as="geometry" />
        </mxCell>
        <mxCell id="qVb45OXCok-LeIYThu6n-16" value="calibrate joints" style="rounded=1;whiteSpace=wrap;html=1;fontSize=16;fillColor=#dae8fc;strokeColor=#6c8ebf;" vertex="1" parent="qVb45OXCok-LeIYThu6n-11">
          <mxGeometry x="263" y="120" width="120" height="60" as="geometry" />
        </mxCell>
        <mxCell id="qVb45OXCok-LeIYThu6n-36" style="edgeStyle=orthogonalEdgeStyle;rounded=0;orthogonalLoop=1;jettySize=auto;html=1;exitX=0;exitY=0.5;exitDx=0;exitDy=0;" edge="1" parent="qVb45OXCok-LeIYThu6n-11" source="qVb45OXCok-LeIYThu6n-17" target="qVb45OXCok-LeIYThu6n-13">
          <mxGeometry relative="1" as="geometry" />
        </mxCell>
        <mxCell id="qVb45OXCok-LeIYThu6n-17" value="update controller" style="rounded=1;whiteSpace=wrap;html=1;fontSize=16;fillColor=#dae8fc;strokeColor=#6c8ebf;" vertex="1" parent="qVb45OXCok-LeIYThu6n-11">
          <mxGeometry x="263" y="210" width="120" height="60" as="geometry" />
        </mxCell>
        <mxCell id="qVb45OXCok-LeIYThu6n-41" style="edgeStyle=orthogonalEdgeStyle;rounded=0;orthogonalLoop=1;jettySize=auto;html=1;exitX=0;exitY=0.5;exitDx=0;exitDy=0;entryX=0.5;entryY=0;entryDx=0;entryDy=0;" edge="1" parent="qVb45OXCok-LeIYThu6n-11" source="qVb45OXCok-LeIYThu6n-18" target="qVb45OXCok-LeIYThu6n-15">
          <mxGeometry relative="1" as="geometry" />
        </mxCell>
        <mxCell id="qVb45OXCok-LeIYThu6n-18" value="update state" style="rounded=1;whiteSpace=wrap;html=1;fontSize=16;fillColor=#dae8fc;strokeColor=#6c8ebf;" vertex="1" parent="qVb45OXCok-LeIYThu6n-11">
          <mxGeometry x="263" y="30" width="120" height="60" as="geometry" />
        </mxCell>
        <mxCell id="qVb45OXCok-LeIYThu6n-40" value="" style="edgeStyle=orthogonalEdgeStyle;rounded=0;orthogonalLoop=1;jettySize=auto;html=1;" edge="1" parent="qVb45OXCok-LeIYThu6n-11" source="qVb45OXCok-LeIYThu6n-13" target="qVb45OXCok-LeIYThu6n-14">
          <mxGeometry relative="1" as="geometry" />
        </mxCell>
        <mxCell id="qVb45OXCok-LeIYThu6n-13" value="accelerometer polling" style="rounded=1;whiteSpace=wrap;html=1;fontSize=16;fillColor=#dae8fc;strokeColor=#6c8ebf;" vertex="1" parent="qVb45OXCok-LeIYThu6n-11">
          <mxGeometry x="20" y="210" width="120" height="60" as="geometry" />
        </mxCell>
        <mxCell id="qVb45OXCok-LeIYThu6n-29" style="edgeStyle=orthogonalEdgeStyle;rounded=0;orthogonalLoop=1;jettySize=auto;html=1;exitX=0;exitY=0.25;exitDx=0;exitDy=0;entryX=1;entryY=0.25;entryDx=0;entryDy=0;" edge="1" parent="1" source="qVb45OXCok-LeIYThu6n-27" target="qVb45OXCok-LeIYThu6n-16">
          <mxGeometry relative="1" as="geometry" />
        </mxCell>
        <mxCell id="qVb45OXCok-LeIYThu6n-27" value="calibration procedure&lt;div&gt;[SM]&lt;/div&gt;" style="rounded=1;whiteSpace=wrap;html=1;fontSize=16;fillColor=#dae8fc;strokeColor=#6c8ebf;" vertex="1" parent="1">
          <mxGeometry x="660" y="190" width="120" height="60" as="geometry" />
        </mxCell>
        <mxCell id="qVb45OXCok-LeIYThu6n-28" style="edgeStyle=orthogonalEdgeStyle;rounded=0;orthogonalLoop=1;jettySize=auto;html=1;exitX=1;exitY=0.75;exitDx=0;exitDy=0;entryX=0;entryY=0.75;entryDx=0;entryDy=0;" edge="1" parent="1" source="qVb45OXCok-LeIYThu6n-16" target="qVb45OXCok-LeIYThu6n-27">
          <mxGeometry relative="1" as="geometry" />
        </mxCell>
        <mxCell id="qVb45OXCok-LeIYThu6n-61" style="edgeStyle=orthogonalEdgeStyle;rounded=0;orthogonalLoop=1;jettySize=auto;html=1;exitX=1;exitY=0.5;exitDx=0;exitDy=0;entryX=0;entryY=0.5;entryDx=0;entryDy=0;" edge="1" parent="1" source="qVb45OXCok-LeIYThu6n-59" target="qVb45OXCok-LeIYThu6n-11">
          <mxGeometry relative="1" as="geometry" />
        </mxCell>
        <mxCell id="qVb45OXCok-LeIYThu6n-59" value="Main init" style="swimlane;whiteSpace=wrap;html=1;" vertex="1" parent="1">
          <mxGeometry x="10" y="70" width="200" height="360" as="geometry" />
        </mxCell>
        <mxCell id="qVb45OXCok-LeIYThu6n-5" value="serial, IMU initialisation&lt;div&gt;[TTK4900]&lt;/div&gt;" style="rounded=1;whiteSpace=wrap;html=1;fontSize=16;fillColor=#dae8fc;strokeColor=#6c8ebf;" vertex="1" parent="qVb45OXCok-LeIYThu6n-59">
          <mxGeometry x="40" y="240" width="120" height="60" as="geometry" />
        </mxCell>
        <mxCell id="qVb45OXCok-LeIYThu6n-3" value="Peripheral functions start&lt;div&gt;[HAL]&lt;/div&gt;" style="rounded=1;whiteSpace=wrap;html=1;fontSize=16;fillColor=#dae8fc;strokeColor=#6c8ebf;" vertex="1" parent="qVb45OXCok-LeIYThu6n-59">
          <mxGeometry x="40" y="150" width="120" height="60" as="geometry" />
        </mxCell>
        <mxCell id="qVb45OXCok-LeIYThu6n-2" value="Peripheral initialisation&lt;div&gt;[MX]&lt;/div&gt;" style="rounded=1;whiteSpace=wrap;html=1;fontSize=16;fillColor=#dae8fc;strokeColor=#6c8ebf;" vertex="1" parent="qVb45OXCok-LeIYThu6n-59">
          <mxGeometry x="40" y="60" width="120" height="60" as="geometry" />
        </mxCell>
        <mxCell id="qVb45OXCok-LeIYThu6n-7" value="" style="edgeStyle=orthogonalEdgeStyle;rounded=0;orthogonalLoop=1;jettySize=auto;html=1;" edge="1" parent="qVb45OXCok-LeIYThu6n-59" source="qVb45OXCok-LeIYThu6n-3" target="qVb45OXCok-LeIYThu6n-5">
          <mxGeometry relative="1" as="geometry" />
        </mxCell>
        <mxCell id="qVb45OXCok-LeIYThu6n-6" value="" style="edgeStyle=orthogonalEdgeStyle;rounded=0;orthogonalLoop=1;jettySize=auto;html=1;" edge="1" parent="qVb45OXCok-LeIYThu6n-59" source="qVb45OXCok-LeIYThu6n-2" target="qVb45OXCok-LeIYThu6n-3">
          <mxGeometry relative="1" as="geometry" />
        </mxCell>
      </root>
    </mxGraphModel>
  </diagram>
</mxfile>
